<?xml version="1.0" encoding="UTF-8"?>
<svg xmlns="http://www.w3.org/2000/svg" width="1280" height="720" viewBox="0 0 1280 720" font-family="monospace">
<rect width="1280" height="720" fill="#0b0e14"/>
<line x1="640.0" y1="0" x2="640.0" y2="720" stroke="#1c2333" stroke-width="1"/>
<line x1="0" y1="360.0" x2="1280" y2="360.0" stroke="#1c2333" stroke-width="1"/>
<rect x="620.0" y="330.0" width="40" height="60" fill="none" stroke="#39d353" stroke-width="2"/>
<rect x="620.0" y="322.0" width="40" height="4" fill="#333"/>
<rect x="620.0" y="322.0" width="40.0" height="4" fill="#39d353"/>
<text x="640.0" y="318.0" fill="#39d353" font-size="11" text-anchor="middle">local t0 100/100</text>
<rect x="396.0" y="132.0" width="40" height="60" fill="none" stroke="#f85149" stroke-width="2"/>
<rect x="396.0" y="124.0" width="40" height="4" fill="#333"/>
<rect x="396.0" y="124.0" width="30.0" height="4" fill="#f85149"/>
<text x="416.0" y="120.0" fill="#f85149" font-size="11" text-anchor="middle">enemy t1 75/100</text>
<rect x="876.0" y="492.0" width="40" height="60" fill="none" stroke="#f85149" stroke-width="2"/>
<rect x="876.0" y="484.0" width="40" height="4" fill="#333"/>
<rect x="876.0" y="484.0" width="20.0" height="4" fill="#f85149"/>
<text x="896.0" y="480.0" fill="#f85149" font-size="11" text-anchor="middle">enemy t1 50/100</text>
<rect x="748.0" y="294.0" width="40" height="60" fill="none" stroke="#58a6ff" stroke-width="2"/>
<rect x="748.0" y="286.0" width="40" height="4" fill="#333"/>
<rect x="748.0" y="286.0" width="40.0" height="4" fill="#58a6ff"/>
<text x="768.0" y="282.0" fill="#58a6ff" font-size="11" text-anchor="middle">teammate t0 100/100</text>
</svg>